<?xml version="1.0" standalone="no"?><!DOCTYPE svg PUBLIC "-//W3C//DTD SVG 1.1//EN" "http://www.w3.org/Graphics/SVG/1.1/DTD/svg11.dtd"><svg t="1712587517235" class="icon" viewBox="0 0 1024 1024" version="1.1" xmlns="http://www.w3.org/2000/svg" p-id="2074" xmlns:xlink="http://www.w3.org/1999/xlink" width="200" height="200"><path d="M895.390369 592.471335C826.208502 545.145881 753.955901 620.288587 692.179926 637.087317c27.817252-55.634503 83.451755-89.051332 116.868583-141.795731-11.199153-13.908626-22.217675-36.126301-41.725877-41.725878-30.707356-5.599577-75.142706-22.217675-86.341859 19.508203-8.309049-33.416828 44.43535-50.034927 50.034926-80.742283 66.833657-41.725878 144.505204-122.46816 139.086259-205.739284-33.416828-33.416828-63.943553 22.217675-94.650908-16.79873-19.508203-47.325454-19.508203-91.760804-27.817252-144.505203C739.50538 2.709473 711.688128 0 695.07003 0c-5.599577 80.561651 13.908626 152.994884 25.107779 225.247486 11.199153 19.508203 55.634503 33.416828 33.416829 61.23408-66.833657 83.451755-126.08079 178.102664-220.009173 239.336744 0 25.107779 30.526724 41.725878 44.43535 58.343976 39.016405 2.709473 72.252602-30.526724 108.378903-47.325454l8.309049 5.599577a134.751102 134.751102 0 0 1-41.725878 47.325454c-11.199153 69.543129-75.142706 119.578056-119.578056 169.612983-2.709473 24.927148 19.508203 36.126301 36.126301 50.034926 36.126301-19.508203 36.126301-63.943553 77.852179-75.142705 30.526724 19.508203 63.943553 58.343976 52.925031 100.069853-11.199153 19.508203-2.709473 58.343976-36.126301 58.343976 2.709473 13.908626 5.599577 27.817252 19.508202 33.416828 39.016405-11.199153 66.833657 36.126301 108.378903 13.908626 69.543129-19.508203 75.142706-94.650908 102.959958-147.395307 22.217675-41.725878 22.217675-94.650908 24.927147-147.395308a133.30605 133.30605 0 0 0-24.927147-52.925031z m-169.612983 144.505204c-19.508203 5.599577-47.325454 2.709473-55.634504-19.508202-8.309049-24.927148 19.508203-16.618098 27.817252-30.526725 13.908626 8.309049 19.508203-22.217675 36.126301-16.618098a80.561651 80.561651 0 0 1-8.309049 66.833657z m105.66943 89.051332c-19.508203 30.707356-44.615982 58.343976-80.742283 63.943553-8.309049-39.016405 27.817252-69.543129 33.416829-105.669431 5.599577-22.217675 36.126301 0 44.43535-22.217675 19.508203 16.618098 2.890104 44.43535 2.890104 63.943553zM625.526901 119.578056c-55.634503 172.503087-147.395308 325.136708-205.739284 498.001058-13.908626-8.309049 0-22.217675 0-30.526724l-2.709473-133.486682a137.279944 137.279944 0 0 0-83.451755-16.618098c-25.107779 80.742283-116.868584 113.978479-172.503087 183.521609C147.034045 653.705415 116.326689 678.813195 108.01764 712.230023a68.820603 68.820603 0 0 0 22.217675 77.852178C172.141824 812.841771 193.998236 773.283472 224.886223 751.065796c13.908626-47.325454 58.343976-77.852179 72.252602-125.177632 27.817252-22.217675 27.817252-61.23408 47.325454-89.051332 22.217675 5.599577-2.890104 27.817252 2.709473 47.325454 38.835774 47.325454-13.908626 89.051332-19.508203 136.376786-22.037044 69.543129-94.470277 125.177633-94.470276 200.681602 22.217675 0 36.126301 39.016405 58.343976 19.508202 19.508203-36.126301 39.016405-77.852179 72.252601-102.959957 16.618098 58.343976-5.599577 125.177633 5.599577 183.521608l16.618098 2.709473c16.79873-86.341859 11.199153-180.631505 16.79873-269.863468 8.309049-66.833657 50.034927-119.578056 66.833657-180.631505 19.508203-113.978479 80.742283-211.33886 111.269007-322.788499 2.709473-47.325454 52.925031-86.161228 44.43535-130.777209zM344.464279 272.572941A154.981831 154.981831 0 0 0 464.945493 178.102664c-18.06315-55.634503-90.315752-41.906509-134.389839-27.997884-22.217675-16.618098-38.835774 19.508203-64.304816 19.508203-24.927148 13.908626-66.833657 8.309049-72.252602 41.725877 36.126301 47.325454 91.760804 58.343976 150.285412 61.234081z" fill="#B61D22" p-id="2075"></path></svg>